HIERARCHY
ROOT joint_Root
{
	OFFSET 0.0 0.0 0.0
	CHANNELS 6 Xposition Yposition Zposition Zrotation Xrotation Yrotation 
	JOINT Hips
	{
		OFFSET 4.5925 91.4895 -427.239
		CHANNELS 6 Xposition Yposition Zposition Zrotation Xrotation Yrotation 
		JOINT Spine
		{
			OFFSET 15.7357 0.0 0.0
			CHANNELS 6 Xposition Yposition Zposition Zrotation Xrotation Yrotation 
			JOINT Chest
			{
				OFFSET 8.98455 -0.406207 0.0
				CHANNELS 6 Xposition Yposition Zposition Zrotation Xrotation Yrotation 
				JOINT Neck
				{
					OFFSET 16.3773 0.0 0.0
					CHANNELS 6 Xposition Yposition Zposition Zrotation Xrotation Yrotation 
					JOINT Head
					{
						OFFSET 6.45672 0.0 0.0
						CHANNELS 6 Xposition Yposition Zposition Zrotation Xrotation Yrotation 
						End Site
						{
							OFFSET 0.0 0.0 0.0
						}
					}
				}
				JOINT Shoulder_L
				{
					OFFSET 12.9942 -0.242716 4.98039
					CHANNELS 6 Xposition Yposition Zposition Zrotation Xrotation Yrotation 
					JOINT UpperArm_L
					{
						OFFSET 5.34809 0.0 0.0
						CHANNELS 6 Xposition Yposition Zposition Zrotation Xrotation Yrotation 
						JOINT LowerArm_L
						{
							OFFSET 24.3286 1.87007e-05 0.0
							CHANNELS 6 Xposition Yposition Zposition Zrotation Xrotation Yrotation 
							JOINT Hand_L
							{
								OFFSET 22.2916 0.0 0.0
								CHANNELS 6 Xposition Yposition Zposition Zrotation Xrotation Yrotation 
								End Site
								{
									OFFSET 0.0 0.0 0.0
								}
							}
						}
					}
				}
				JOINT Shoulder_R
				{
					OFFSET 12.9945 -0.242716 -4.98039
					CHANNELS 6 Xposition Yposition Zposition Zrotation Xrotation Yrotation 
					JOINT UpperArm_R
					{
						OFFSET -5.34813 0.0 0.0
						CHANNELS 6 Xposition Yposition Zposition Zrotation Xrotation Yrotation 
						JOINT LowerArm_R
						{
							OFFSET -24.3289 0.000322201 0.0
							CHANNELS 6 Xposition Yposition Zposition Zrotation Xrotation Yrotation 
							JOINT Hand_R
							{
								OFFSET -22.2915 -0.000108084 0.0
								CHANNELS 6 Xposition Yposition Zposition Zrotation Xrotation Yrotation 
								End Site
								{
									OFFSET 0.0 0.0 0.0
								}
							}
						}
					}
				}
			}
		}
		JOINT UpperLeg_L
		{
			OFFSET -2.19248 -6.46944 0.0
			CHANNELS 6 Xposition Yposition Zposition Zrotation Xrotation Yrotation 
			JOINT LowerLeg_L
			{
				OFFSET 39.0811 0.0 -1.23785e-05
				CHANNELS 6 Xposition Yposition Zposition Zrotation Xrotation Yrotation 
				JOINT Foot_L
				{
					OFFSET 40.9854 0.0 -1.26872e-05
					CHANNELS 6 Xposition Yposition Zposition Zrotation Xrotation Yrotation 
					JOINT Toes_L
					{
						OFFSET 11.7543 0.0 0.0
						CHANNELS 6 Xposition Yposition Zposition Zrotation Xrotation Yrotation 
						End Site
						{
							OFFSET 0.0 0.0 0.0
						}
					}
				}
			}
		}
		JOINT UpperLeg_R
		{
			OFFSET -2.19251 6.46944 0.0
			CHANNELS 6 Xposition Yposition Zposition Zrotation Xrotation Yrotation 
			JOINT LowerLeg_R
			{
				OFFSET -39.0811 -0.00228153 -0.0401928
				CHANNELS 6 Xposition Yposition Zposition Zrotation Xrotation Yrotation 
				JOINT Foot_R
				{
					OFFSET -40.9854 0.0 0.0
					CHANNELS 6 Xposition Yposition Zposition Zrotation Xrotation Yrotation 
					JOINT Toes_R
					{
						OFFSET -11.7543 0.0 0.0
						CHANNELS 6 Xposition Yposition Zposition Zrotation Xrotation Yrotation 
						End Site
						{
							OFFSET 0.0 0.0 0.0
						}
					}
				}
			}
		}
	}
}
MOTION
Frames:	4
Frame Time:	0.0333333
0.000000 0.000000 0.000000 0.000000 0.000000 -0.000000 -1.341050 90.829500 -3.341290 89.818400 -2.234980 10.487700 15.735700 0.000005 -0.000001 85.907800 78.956300 -86.244700 8.984550 -0.406207 -0.000000 14.264400 -1.576430 -0.476872 16.377300 -0.000001 -0.000001 18.799500 -3.834200 2.855350 6.456720 -0.000001 -0.000000 -4.456690 -3.210140 0.294093 12.994200 -0.242716 4.980390 -89.397400 -1.809930 -71.580800 5.348090 -0.000007 -0.000001 -69.540000 -7.523040 -76.858100 24.328600 0.000019 0.000005 46.178300 -13.034100 -102.213000 22.291600 -0.000001 0.000005 18.914100 5.004380 7.226190 12.994500 -0.242716 -4.980390 89.940700 0.248731 -76.600900 -5.348130 -0.000001 -0.000004 -66.297000 -9.480750 -75.760700 -24.328900 0.000322 -0.000009 23.923600 -7.449250 -106.291000 -22.291500 -0.000108 -0.000004 23.522300 5.291800 0.300890 -2.192480 -6.469440 -0.000000 -175.366000 -12.678600 -3.006760 39.081100 -0.000007 -0.000012 -0.162835 0.262837 31.779700 40.985400 -0.000006 -0.000013 0.737471 5.763200 -68.141200 11.754300 -0.000000 0.000003 -0.000170 -0.001615 -16.638800 -2.192510 6.469440 -0.000001 174.816000 21.072300 178.772000 -39.081100 -0.002282 -0.040193 -0.191434 0.319819 31.336900 -40.985400 0.000008 0.000006 4.665270 14.297600 -69.636800 -11.754300 -0.000006 -0.000006 -0.002718 -0.037364 -18.092600
0.000000 0.000000 0.000000 0.000000 0.000000 -0.000000 -1.356880 90.830600 -3.350920 89.814500 -2.237890 10.474700 15.735700 0.000005 -0.000001 85.984700 78.941000 -86.330500 8.984550 -0.406207 -0.000000 14.296800 -1.549820 -0.497393 16.377300 -0.000001 -0.000001 18.856100 -3.819760 2.845130 6.456720 -0.000001 -0.000000 -4.490230 -3.197870 0.301995 12.994200 -0.242716 4.980390 -89.399300 -1.800060 -71.543200 5.348090 -0.000007 -0.000001 -69.615600 -7.405840 -76.841200 24.328600 0.000019 0.000005 46.090800 -13.077800 -102.288000 22.291600 -0.000001 0.000005 19.077800 5.003080 7.253800 12.994500 -0.242716 -4.980390 89.943300 0.238206 -76.618500 -5.348130 -0.000001 -0.000004 -66.316100 -9.533350 -75.645400 -24.328900 0.000322 -0.000009 23.976200 -7.454880 -106.264000 -22.291500 -0.000108 -0.000004 23.629700 5.290640 0.333245 -2.192480 -6.469440 -0.000000 -175.344000 -12.707100 -3.018990 39.081100 -0.000007 -0.000012 -0.162226 0.261903 31.774900 40.985400 -0.000006 -0.000013 0.733007 5.802830 -68.133300 11.754300 -0.000000 0.000003 -0.000183 -0.001719 -16.642600 -2.192510 6.469440 -0.000001 174.836000 21.093600 178.756000 -39.081100 -0.002282 -0.040193 -0.190797 0.318840 31.331500 -40.985400 0.000008 0.000006 4.689940 14.328900 -69.636600 -11.754300 -0.000006 -0.000006 -0.002727 -0.037469 -18.096800
0.000000 0.000000 0.000000 0.000000 0.000000 -0.000000 -1.369040 90.832200 -3.370240 89.815800 -2.191710 10.474400 15.735700 0.000005 -0.000001 85.958400 78.907100 -86.312200 8.984550 -0.406207 -0.000000 14.363600 -1.565080 -0.510807 16.377300 -0.000001 -0.000001 18.909400 -3.788450 2.808850 6.456720 -0.000001 -0.000000 -4.652890 -3.137730 0.315260 12.994200 -0.242716 4.980390 -89.411600 -1.759990 -71.510900 5.348090 -0.000007 -0.000001 -69.645200 -7.370410 -76.884800 24.328600 0.000019 0.000005 45.851100 -13.053200 -102.366000 22.291600 -0.000001 0.000005 19.235800 5.010740 7.090130 12.994500 -0.242716 -4.980390 89.941700 0.244654 -76.603900 -5.348130 -0.000001 -0.000004 -66.378100 -9.551520 -75.625400 -24.328900 0.000322 -0.000009 24.023400 -7.455430 -106.231000 -22.291500 -0.000108 -0.000004 23.636500 5.289990 0.351240 -2.192480 -6.469440 -0.000000 -175.351000 -12.667400 -3.047790 39.081100 -0.000007 -0.000012 -0.162277 0.262014 31.772100 40.985400 -0.000006 -0.000013 0.730138 5.811270 -68.105100 11.754300 -0.000000 0.000003 -0.000181 -0.001705 -16.642000 -2.192510 6.469440 -0.000001 174.838000 21.132100 178.747000 -39.081100 -0.002282 -0.040193 -0.192353 0.321423 31.329300 -40.985400 0.000008 0.000006 4.692230 14.311200 -69.623400 -11.754300 -0.000006 -0.000006 -0.002582 -0.035779 -18.028100
0.000000 0.000000 0.000000 0.000000 0.000000 -0.000000 -1.379490 90.838100 -3.396620 89.820000 -2.142930 10.454000 15.735700 0.000005 -0.000001 85.926800 78.885000 -86.286200 8.984550 -0.406207 -0.000000 14.406800 -1.580570 -0.519354 16.377300 -0.000001 -0.000001 18.915100 -3.746070 2.767320 6.456720 -0.000001 -0.000000 -4.762860 -3.067490 0.308701 12.994200 -0.242716 4.980390 -89.410800 -1.759780 -71.485800 5.348090 -0.000007 -0.000001 -69.634700 -7.337690 -76.878300 24.328600 0.000019 0.000005 45.849500 -13.051100 -102.365000 22.291600 -0.000001 0.000005 19.352200 5.011410 7.075790 12.994500 -0.242716 -4.980390 89.918400 0.341303 -76.551200 -5.348130 -0.000001 -0.000004 -66.309500 -9.523950 -75.696600 -24.328900 0.000322 -0.000009 23.999600 -7.381620 -106.097000 -22.291500 -0.000108 -0.000004 23.792200 5.291230 0.316906 -2.192480 -6.469440 -0.000000 -175.354000 -12.664700 -3.072800 39.081100 -0.000007 -0.000012 -0.162928 0.263363 31.743100 40.985400 -0.000006 -0.000013 0.734041 5.854330 -68.072900 11.754300 -0.000000 0.000003 -0.000192 -0.001790 -16.645200 -2.192510 6.469440 -0.000001 174.846000 21.176700 178.725000 -39.081100 -0.002282 -0.040193 -0.192005 0.321134 31.307000 -40.985400 0.000008 0.000006 4.699950 14.311100 -69.602000 -11.754300 -0.000006 -0.000006 -0.002650 -0.036578 -18.060600
